<?xml version="1.0" encoding="UTF-8"?><svg id="Layer_1" xmlns="http://www.w3.org/2000/svg" viewBox="0 0 510.33 510"><defs><style>.cls-1{fill:#fff;}.cls-2{fill:#e6e668;}</style></defs><path class="cls-2" d="M96.31,457c-2.22,0-4.18-1.46-4.8-3.59L13.09,185.57c-.62-2.1.21-4.36,2.03-5.57.84-.56,1.81-.84,2.77-.84,1.12,0,2.24.38,3.15,1.12,52.55,42.7,108.08,89.13,158.09,139.32.08.08.17.17.24.26,1.9,2.2,2.43,5.66-.69,8.4l-.09.08c-1.03.92-2.32,1.56-3.57,2.18-.72.36-1.62.81-2.01,1.11-8.76,6.67-11.95,16.69-8.54,26.8,2.9,8.59,11.08,17.27,22.81,17.27,3.28,0,6.65-.7,10.01-2.08,12.14-4.98,15.53-16,14.65-24.66-.86-8.48-6.63-19.28-20.08-21.91-.02,0-.48,0-.68,0-.29,0-.59.01-.87.01-1.04,0-3.8,0-5.65-2.19-1.07-1.27-1.52-2.95-1.23-4.63.03-.19.08-.38.13-.56l67.09-229c.62-2.13,2.58-3.59,4.8-3.59h.01c2.23,0,4.18,1.48,4.79,3.62l65.94,229.85c.43,1.5.14,3.11-.79,4.36-.93,1.25-2.39,2-3.95,2.02-13.25.17-20.5,9.77-22.69,17.93-2.2,8.23-.67,20.28,10.9,27.13,4.2,2.49,8.52,3.75,12.83,3.75,9.74,0,18.85-6.61,22.66-16.44,1.75-4.51,4.6-16.07-6.45-26.34l-7.73-5.47c-1.2-.85-1.97-2.19-2.1-3.66-.12-1.47.41-2.92,1.45-3.96,42.12-42.04,86.58-80.17,120.6-108.68,2.8-2.35,5.63-4.74,8.48-7.15,8.54-7.22,17.36-14.69,26.12-21.48l.23-.18c2.86-2.29,4.49-3.31,6.53-3.31,1.47,0,2.87.61,3.84,1.68,1.18,1.29,1.6,3.11,1.1,4.79l-79.07,267.78c-.63,2.12-2.58,3.58-4.79,3.58l-317.06.06Z"/><path class="cls-1" d="M255.46,92.1l65.94,229.85c-29.03.37-39.48,39.42-14.28,54.37,5.22,3.1,10.45,4.45,15.39,4.45,23.91,0,41.13-31.81,19.36-51.68l-8-5.65c38.19-38.12,78.93-73.73,120.28-108.39,11.25-9.43,22.89-19.56,34.45-28.51.52-.4,2.97-2.44,3.69-2.44.07,0,.12.02.15.06l-79.07,267.78-317.05.06L17.89,184.16c54.36,44.17,108.22,89.32,157.71,138.97.63.73.23.98-.33,1.49-1.05.94-3.73,1.86-5.28,3.04-23.9,18.2-8.27,53.04,17.3,53.04,3.78,0,7.79-.76,11.91-2.46,26.76-10.98,22.6-50.59-6.55-56.13-.24-.05-.55-.06-.88-.06-.45,0-.96.02-1.45.02-1.11,0-2.1-.13-1.95-.98l67.09-229M255.45,82.1c-4.44,0-8.35,2.93-9.6,7.19l-65.7,224.26c-49.52-49.38-104.18-95.08-155.96-137.15-1.83-1.49-4.06-2.24-6.31-2.24-1.92,0-3.85.55-5.53,1.67-3.65,2.42-5.29,6.94-4.06,11.14l78.42,267.84c1.25,4.26,5.16,7.19,9.6,7.19h0l317.05-.06c4.43,0,8.33-2.92,9.59-7.17l79.07-267.78c.99-3.36.15-6.99-2.21-9.58-1.92-2.1-4.67-3.31-7.54-3.31-4.14,0-7.19,2.44-9.65,4.4l-.18.14c-8.83,6.84-17.7,14.35-26.28,21.61-2.84,2.4-5.66,4.79-8.45,7.13-33.39,27.99-76.82,65.21-118.29,106.35l-64.37-224.4c-1.23-4.28-5.13-7.23-9.58-7.24,0,0-.02,0-.03,0h0ZM175.96,335.67c.26-.16.88-.46,1.3-.67,1.48-.73,3.15-1.56,4.68-2.93l.06-.05c.59-.52,1.1-1.06,1.55-1.61,1.87,1.11,4.14,1.67,6.77,1.67.33,0,.66,0,1-.02.03,0,.05,0,.08,0,10.4,2.25,14.87,10.41,15.58,17.4.69,6.86-1.98,15.59-11.57,19.53-2.76,1.13-5.49,1.71-8.11,1.71-9.25,0-15.74-6.96-18.07-13.86-1.29-3.82-3.2-13.51,6.74-21.16h0ZM322.5,370.78c-3.41,0-6.87-1.03-10.28-3.06-9.15-5.43-10.45-14.68-8.62-21.54,1.82-6.79,7.48-14.09,17.92-14.23,1.86-.02,3.65-.56,5.19-1.53.42.43.89.83,1.39,1.19l7.45,5.27c8.23,7.83,6.66,16.27,4.96,20.65-3.02,7.8-10.43,13.25-18,13.25h0Z"/></svg>